<?xml version="1.0" encoding="utf-8"?>
<!-- Generator: Adobe Illustrator 24.0.2, SVG Export Plug-In . SVG Version: 6.00 Build 0)  -->
<svg version="1.1" id="logo_horizontal" xmlns="http://www.w3.org/2000/svg" xmlns:xlink="http://www.w3.org/1999/xlink" x="0px"
	 y="0px" viewBox="0 0 637.51 313.64" style="enable-background:new 0 0 637.51 313.64;" xml:space="preserve">
<style type="text/css">
	.st0{fill:#FFFFFF;}
	.st1{fill:url(#SVGID_1_);}
	.st2{fill:url(#SVGID_2_);}
	.st3{fill:url(#SVGID_3_);}
	.st4{fill:url(#SVGID_4_);}
	.st5{fill:url(#SVGID_5_);}
	.st6{fill:url(#SVGID_6_);}
	.st7{fill:url(#SVGID_7_);}
</style>
<g>
	<g>
		<g>
			<path class="st0" d="M356.5,192.66v20.75c0,0.73,0.13,1.28,0.4,1.64c0.27,0.36,0.78,0.55,1.54,0.55h10.4v5.51h-11.57
				c-2.58,0-4.45-0.65-5.6-1.94c-1.15-1.29-1.73-3.21-1.73-5.77v-20.75H356.5z"/>
			<path class="st0" d="M417.57,198.18h-12.58v5.81h11.15v5.51h-11.15v3.91c0,0.73,0.13,1.28,0.4,1.64
				c0.27,0.36,0.78,0.55,1.54,0.55h11.11v5.51h-12.29c-2.58,0-4.45-0.65-5.6-1.94c-1.15-1.29-1.73-3.21-1.73-5.77v-20.75h19.15
				V198.18z"/>
			<path class="st0" d="M495.22,192.66c2.69,0,5.04,0.34,7.03,1.01c1.99,0.67,3.65,1.63,4.99,2.86c1.33,1.24,2.33,2.73,2.99,4.48
				c0.66,1.75,0.99,3.71,0.99,5.87c0,2.16-0.33,4.12-0.99,5.87c-0.66,1.75-1.66,3.25-2.99,4.48c-1.33,1.24-3,2.19-4.99,2.86
				c-1.99,0.67-4.34,1.01-7.03,1.01h-8.12v-28.45H495.22z M489.46,219.01h5.77c2.1,0,3.98-0.25,5.64-0.73
				c1.65-0.49,3.06-1.24,4.23-2.24c1.16-1.01,2.05-2.27,2.67-3.8c0.62-1.52,0.93-3.31,0.93-5.35s-0.31-3.82-0.93-5.35
				c-0.62-1.52-1.51-2.79-2.67-3.8c-1.17-1.01-2.58-1.75-4.23-2.24c-1.66-0.49-3.54-0.73-5.64-0.73h-5.77V219.01z"/>
			<path class="st0" d="M556.34,192.16c2.19,0,4.17,0.35,5.96,1.05c1.78,0.7,3.3,1.69,4.57,2.97c1.26,1.28,2.25,2.83,2.95,4.65
				c0.7,1.82,1.05,3.84,1.05,6.06c0,2.25-0.35,4.27-1.05,6.08c-0.7,1.81-1.68,3.35-2.95,4.63c-1.26,1.28-2.78,2.27-4.57,2.97
				c-1.78,0.7-3.77,1.05-5.96,1.05c-2.19,0-4.17-0.35-5.96-1.05c-1.78-0.7-3.31-1.69-4.59-2.97c-1.28-1.28-2.26-2.82-2.95-4.63
				c-0.69-1.81-1.03-3.84-1.03-6.08c0-2.22,0.34-4.24,1.03-6.06c0.69-1.82,1.67-3.37,2.95-4.65c1.28-1.28,2.81-2.27,4.59-2.97
				S554.15,192.16,556.34,192.16z M556.34,194.26c-1.85,0-3.52,0.29-5.01,0.88c-1.49,0.59-2.76,1.43-3.81,2.53
				c-1.05,1.09-1.86,2.42-2.42,3.98c-0.56,1.56-0.84,3.3-0.84,5.24c0,1.94,0.28,3.68,0.84,5.24c0.56,1.56,1.37,2.88,2.42,3.98
				c1.05,1.09,2.32,1.94,3.81,2.53c1.49,0.59,3.16,0.88,5.01,0.88s3.52-0.29,5.01-0.88c1.49-0.59,2.75-1.43,3.79-2.53
				c1.04-1.09,1.84-2.42,2.4-3.98c0.56-1.56,0.84-3.3,0.84-5.24c0-1.94-0.28-3.68-0.84-5.24c-0.56-1.56-1.36-2.88-2.4-3.98
				c-1.04-1.09-2.3-1.94-3.79-2.53C559.86,194.56,558.19,194.26,556.34,194.26z"/>
			<path class="st0" d="M618.64,196.11c-0.96-0.51-2.04-0.94-3.27-1.31c-1.22-0.36-2.68-0.55-4.36-0.55c-0.84,0-1.67,0.1-2.49,0.29
				c-0.81,0.2-1.55,0.52-2.19,0.97c-0.65,0.45-1.17,1.02-1.58,1.7c-0.41,0.69-0.61,1.54-0.61,2.55c0,1.29,0.38,2.29,1.14,3.01
				c0.76,0.72,1.7,1.3,2.84,1.75c1.14,0.45,2.36,0.86,3.68,1.22c1.32,0.36,2.55,0.84,3.68,1.43c1.14,0.59,2.08,1.38,2.84,2.36
				c0.76,0.98,1.14,2.31,1.14,4c0,1.46-0.27,2.7-0.82,3.72c-0.55,1.02-1.27,1.86-2.18,2.5c-0.91,0.65-1.95,1.12-3.11,1.41
				c-1.16,0.29-2.36,0.44-3.59,0.44c-1.46,0-2.9-0.2-4.35-0.59c-1.44-0.39-2.67-0.91-3.67-1.56v-2.23c1.07,0.65,2.29,1.19,3.68,1.62
				c1.39,0.44,2.87,0.65,4.44,0.65c0.95,0,1.87-0.1,2.74-0.29c0.87-0.2,1.64-0.53,2.32-0.99c0.67-0.46,1.21-1.07,1.6-1.81
				c0.39-0.74,0.59-1.66,0.59-2.76c0-1.35-0.38-2.38-1.14-3.11c-0.76-0.73-1.7-1.33-2.84-1.79c-1.14-0.46-2.36-0.87-3.68-1.22
				c-1.32-0.35-2.55-0.81-3.68-1.39c-1.14-0.57-2.08-1.35-2.84-2.31c-0.76-0.97-1.14-2.29-1.14-3.98c0-1.32,0.27-2.46,0.8-3.43
				c0.53-0.97,1.23-1.77,2.08-2.4c0.85-0.63,1.84-1.1,2.96-1.41c1.12-0.31,2.27-0.46,3.45-0.46c1.68,0,3.12,0.15,4.33,0.46
				c1.21,0.31,2.28,0.73,3.24,1.26V196.11z"/>
			<path class="st0" d="M306.94,202.14l7.18,18.97h7.2l-10.28-25.73c-0.66-1.64-2.25-2.72-4.02-2.72h0c-1.76,0-3.35,1.07-4.01,2.71
				l-10.4,25.75h6.31l7.21-18.97C306.27,201.77,306.8,201.77,306.94,202.14z"/>
			<path class="st0" d="M254.49,211.64l-7.18-18.97h-7.2l10.28,25.73c0.66,1.64,2.25,2.72,4.02,2.72h0c1.76,0,3.35-1.07,4.01-2.71
				l10.4-25.75h-6.31l-7.21,18.97C255.15,212.01,254.63,212.01,254.49,211.64z"/>
		</g>
		<g>
			<path class="st0" d="M286.47,249.09h-19.31v50.35h-14.41v-50.35h-19.31v-12.1h53.02V249.09z"/>
			<path class="st0" d="M372.93,299.44h-14.41v-62.45h14.41V299.44z"/>
			<path class="st0" d="M403.88,236.99v45.54c0,1.6,0.29,2.8,0.88,3.6c0.59,0.8,1.71,1.2,3.37,1.2h22.82v12.1h-25.4
				c-5.67,0-9.76-1.42-12.29-4.25s-3.79-7.05-3.79-12.66v-45.54H403.88z"/>
			<path class="st0" d="M541.99,235.42c4.93,0,9.42,0.76,13.49,2.26c4.06,1.51,7.54,3.67,10.44,6.47c2.89,2.8,5.14,6.23,6.74,10.3
				c1.6,4.06,2.4,8.65,2.4,13.76c0,5.11-0.8,9.7-2.4,13.76c-1.6,4.07-3.85,7.51-6.74,10.35c-2.9,2.83-6.37,4.99-10.44,6.47
				c-4.07,1.48-8.56,2.22-13.49,2.22c-4.93,0-9.44-0.74-13.53-2.22c-4.1-1.48-7.59-3.63-10.48-6.47c-2.9-2.83-5.14-6.28-6.74-10.35
				c-1.6-4.06-2.4-8.65-2.4-13.76c0-5.11,0.8-9.7,2.4-13.76c1.6-4.07,3.85-7.5,6.74-10.3c2.89-2.8,6.39-4.96,10.48-6.47
				C532.55,236.17,537.06,235.42,541.99,235.42z M541.99,247.8c-5.98,0-10.5,1.86-13.58,5.59c-3.08,3.73-4.62,8.67-4.62,14.83
				c0,3.08,0.38,5.88,1.15,8.41c0.77,2.53,1.92,4.68,3.46,6.47c1.54,1.79,3.45,3.17,5.73,4.16c2.28,0.99,4.9,1.48,7.85,1.48
				c2.96,0,5.56-0.49,7.81-1.48c2.25-0.98,4.14-2.37,5.68-4.16c1.54-1.79,2.69-3.94,3.46-6.47c0.77-2.52,1.16-5.33,1.16-8.41
				c0-3.08-0.39-5.87-1.16-8.36c-0.77-2.49-1.93-4.63-3.46-6.42c-1.54-1.79-3.43-3.17-5.68-4.16
				C547.54,248.29,544.94,247.8,541.99,247.8z"/>
			<path class="st0" d="M616.95,248.58c-2.49-0.52-5.19-0.79-8.08-0.79c-1.23,0-2.43,0.09-3.6,0.28c-1.17,0.18-2.2,0.51-3.09,0.97
				c-0.89,0.46-1.62,1.11-2.17,1.94c-0.55,0.83-0.83,1.86-0.83,3.09c0,1.54,0.66,2.76,1.99,3.65c1.32,0.89,2.99,1.73,4.99,2.49
				c2,0.77,4.17,1.56,6.51,2.35c2.34,0.8,4.51,1.93,6.51,3.37c2,1.45,3.66,3.3,4.99,5.54c1.32,2.25,1.99,5.16,1.99,8.73
				c0,3.76-0.65,6.96-1.94,9.61c-1.29,2.65-3.02,4.8-5.17,6.47c-2.16,1.66-4.62,2.88-7.39,3.65c-2.77,0.77-5.6,1.16-8.5,1.16
				c-3.45,0-6.76-0.39-9.93-1.16c-3.17-0.77-5.93-1.74-8.27-2.91v-12.56c2.22,1.17,4.85,2.17,7.9,3c3.05,0.83,6.05,1.25,9.01,1.25
				c2.65,0,4.85-0.48,6.6-1.43c1.76-0.95,2.63-2.73,2.63-5.31c0-1.72-0.66-3.09-1.99-4.11c-1.32-1.02-2.99-1.92-4.99-2.73
				c-2-0.8-4.16-1.62-6.47-2.45c-2.31-0.83-4.47-1.96-6.47-3.37c-2-1.41-3.66-3.25-4.99-5.5c-1.32-2.25-1.99-5.19-1.99-8.82
				c0-3.14,0.59-5.93,1.76-8.36c1.17-2.43,2.82-4.48,4.94-6.14c2.12-1.66,4.68-2.92,7.67-3.79c2.99-0.86,6.3-1.29,9.93-1.29
				c3.14,0,6.05,0.25,8.73,0.74c2.68,0.49,5,1.17,6.97,2.03v13.03C621.86,249.98,619.45,249.11,616.95,248.58z"/>
			<g>
				<rect x="481.85" y="236.99" class="st0" width="14.41" height="62.45"/>
				<rect x="440.74" y="236.99" class="st0" width="14.41" height="62.45"/>
			</g>
			<path class="st0" d="M348.66,299.44l-15-24.43c3.57-1.27,6.4-3.21,8.51-5.83c2.4-2.99,3.6-6.82,3.6-11.5
				c0-3.33-0.62-6.28-1.85-8.87c-1.23-2.59-2.97-4.76-5.22-6.51c-2.25-1.76-4.94-3.08-8.08-3.97c-3.14-0.89-6.62-1.34-10.44-1.34
				h-23.83v62.45h14.41v-20.88h9.44l12.19,20.88H348.66z M310.76,249.09h8.5c1.48,0,2.91,0.12,4.3,0.37
				c1.39,0.25,2.62,0.69,3.7,1.34c1.08,0.65,1.92,1.52,2.54,2.63c0.62,1.11,0.92,2.56,0.92,4.34c0,1.79-0.31,3.23-0.92,4.34
				c-0.62,1.11-1.46,1.99-2.54,2.63c-1.08,0.65-2.31,1.09-3.7,1.34c-1.39,0.25-2.82,0.37-4.3,0.37h-8.5V249.09z"/>
		</g>
	</g>
	<g>
		
			<linearGradient id="SVGID_1_" gradientUnits="userSpaceOnUse" x1="-395.4983" y1="-461.8551" x2="-170.5428" y2="-339.4793" gradientTransform="matrix(0.797 0.4578 -0.4628 0.8058 159.7543 621.4286)">
			<stop  offset="0" style="stop-color:#F7088E"/>
			<stop  offset="0.3401" style="stop-color:#C32296"/>
			<stop  offset="0.7857" style="stop-color:#8542A0"/>
			<stop  offset="0.9972" style="stop-color:#6C4FA4"/>
		</linearGradient>
		<path class="st1" d="M97.96,120.27l8.19-13.72L73.31,55.99L46.78,82.19l25.72,49.68l13.96-2.94
			C90.89,128,95.33,124.69,97.96,120.27z"/>
		
			<linearGradient id="SVGID_2_" gradientUnits="userSpaceOnUse" x1="-397.0077" y1="-459.0804" x2="-172.0522" y2="-336.7046" gradientTransform="matrix(0.797 0.4578 -0.4628 0.8058 159.7543 621.4286)">
			<stop  offset="0" style="stop-color:#F7088E"/>
			<stop  offset="0.3401" style="stop-color:#C32296"/>
			<stop  offset="0.7857" style="stop-color:#8542A0"/>
			<stop  offset="0.9972" style="stop-color:#6C4FA4"/>
		</linearGradient>
		<path class="st2" d="M122.51,163.83c-5.5,0.5-10.66,3.63-13.59,8.15l-8.71,13.45l46.98,90.75l57.69-17.6l-62.7-96.54
			L122.51,163.83z"/>
		<linearGradient id="SVGID_3_" gradientUnits="userSpaceOnUse" x1="39.4847" y1="206.4759" x2="156.1533" y2="4.3999">
			<stop  offset="0" style="stop-color:#3DC1FF"/>
			<stop  offset="1" style="stop-color:#BDDB12"/>
		</linearGradient>
		<path class="st3" d="M161.61,13.59l-55.46,92.95l-8.19,13.72c-2.64,4.42-7.08,7.73-11.51,8.67l-13.96,2.94l-57.65,12.14
			l-3.48,29.05l58.37-5.48l13.6-1.28c2.13-0.2,4.29-0.55,6.45-1.03c13.85-3.09,27.95-11.85,38.6-24.49c2.11-2.5,4.08-5.15,5.89-7.94
			l9.56-14.77l68.32-105.52L161.61,13.59z"/>
		<linearGradient id="SVGID_4_" gradientUnits="userSpaceOnUse" x1="110.3367" y1="285.4158" x2="242.7076" y2="56.1425">
			<stop  offset="0" style="stop-color:#FC3C2B"/>
			<stop  offset="0.2738" style="stop-color:#FD661E"/>
			<stop  offset="0.769" style="stop-color:#FEAC09"/>
			<stop  offset="1" style="stop-color:#FFC800"/>
		</linearGradient>
		<path class="st4" d="M298.03,86.09l-154.19,31.97l-18.65,3.87c-2.62,0.54-5.19,1.23-7.71,2.05c-14.54,4.7-27.27,13.75-36.08,25.08
			c-1.67,2.14-3.2,4.36-4.57,6.65l-7.08,11.87l-40.21,67.4l23.64,23.13l47.06-72.68l8.71-13.45c2.92-4.52,8.09-7.65,13.59-8.15
			l19.68-1.78l157.53-14.26L298.03,86.09z"/>
		
			<linearGradient id="SVGID_5_" gradientUnits="userSpaceOnUse" x1="-289.3553" y1="-281.9048" x2="-289.3553" y2="-573.6757" gradientTransform="matrix(0.797 0.4578 -0.4628 0.8058 159.7543 621.4286)">
			<stop  offset="0" style="stop-color:#F7088E"/>
			<stop  offset="0.3401" style="stop-color:#C32296"/>
			<stop  offset="0.7857" style="stop-color:#8542A0"/>
			<stop  offset="0.9972" style="stop-color:#6C4FA4"/>
		</linearGradient>
		<path class="st5" d="M122.51,163.83l19.68-1.78l-13.82-21.27c-10.65,12.64-24.75,21.4-38.6,24.49l10.44,20.16l8.71-13.45
			C111.85,167.46,117.01,164.33,122.51,163.83z"/>
		<linearGradient id="SVGID_6_" gradientUnits="userSpaceOnUse" x1="92.691" y1="167.231" x2="144.5698" y2="77.3742">
			<stop  offset="0" style="stop-color:#3DC1FF"/>
			<stop  offset="1" style="stop-color:#BDDB12"/>
		</linearGradient>
		<path class="st6" d="M125.18,121.93c-2.62,0.54-5.19,1.23-7.71,2.05c-14.54,4.7-27.27,13.75-36.08,25.08
			c-1.67,2.14-3.2,4.36-4.57,6.65l-7.08,11.87l13.6-1.28c2.13-0.2,4.29-0.55,6.45-1.03c13.85-3.09,27.95-11.85,38.6-24.49
			c2.11-2.5,4.08-5.15,5.89-7.94l9.56-14.77L125.18,121.93z"/>
	</g>
	<linearGradient id="SVGID_7_" gradientUnits="userSpaceOnUse" x1="419.5322" y1="268.2125" x2="553.7227" y2="268.2125">
		<stop  offset="0" style="stop-color:#FC3C2B"/>
		<stop  offset="0.2877" style="stop-color:#FD6922"/>
		<stop  offset="0.7734" style="stop-color:#FEAF14"/>
		<stop  offset="1" style="stop-color:#FFCB0F"/>
	</linearGradient>
	<rect x="432.59" y="261.95" class="st7" width="71.81" height="12.53"/>
</g>
</svg>
